<svg xmlns="http://www.w3.org/2000/svg" xmlns:xlink="http://www.w3.org/1999/xlink" width="1024" zoomAndPan="magnify" viewBox="0 0 768 576" height="768" preserveAspectRatio="xMidYMid meet" version="1.0"><defs><g/><clipPath id="5c4cccc083"><path d="M 311 121.21875 L 453 121.21875 L 453 279 L 311 279 Z M 311 121.21875 " clip-rule="nonzero"/></clipPath><clipPath id="3aa6736c6c"><path d="M 57 121.21875 L 279 121.21875 L 279 329 L 57 329 Z M 57 121.21875 " clip-rule="nonzero"/></clipPath><clipPath id="8f03c0514b"><path d="M 471 121.21875 L 701 121.21875 L 701 331.21875 L 471 331.21875 Z M 471 121.21875 " clip-rule="nonzero"/></clipPath></defs><path fill="#cd5f28" d="M 408.691406 322.851562 C 406.542969 319.214844 395.378906 318.785156 395.378906 318.785156 C 395.378906 318.785156 402.464844 288.605469 403.753906 278.757812 C 405.039062 268.910156 394.222656 227.757812 394.222656 227.757812 L 381.246094 230.75 C 381.246094 230.75 381.253906 230.78125 381.265625 230.828125 L 370.136719 232.179688 L 358.359375 230.75 C 358.359375 230.75 357.621094 290.601562 358.359375 320.855469 C 349.082031 323.136719 343.679688 323.421875 343.519531 327.417969 C 343.367188 331.222656 367.421875 329.59375 370.136719 328.691406 C 372.855469 329.59375 396.910156 331.222656 396.757812 327.417969 C 396.75 327.183594 396.71875 326.960938 396.671875 326.75 C 404.699219 326.488281 410.199219 325.410156 408.691406 322.851562 Z M 390.722656 275.824219 C 390.40625 282.113281 383.8125 311.96875 381.925781 320.40625 C 382.558594 293.90625 382.082031 245.441406 381.949219 233.480469 C 384.191406 242.273438 391.027344 269.683594 390.722656 275.824219 Z M 390.722656 275.824219 " fill-opacity="1" fill-rule="nonzero"/><path fill="#e97525" d="M 447.796875 185.5625 C 431.585938 196.851562 420.679688 187.0625 420.679688 187.0625 C 420.675781 212.703125 402.628906 235.222656 372.089844 235.222656 C 346.988281 235.222656 330.324219 220.011719 325.183594 200.355469 C 319.226562 225.679688 328.3125 261.976562 325.863281 270.039062 C 323 279.457031 302.390625 282.882812 307.257812 227.636719 C 310.308594 193 320.585938 173.28125 327.828125 163.390625 C 327.257812 162.898438 326.71875 162.375 326.226562 161.816406 C 323.402344 158.617188 321.949219 154.46875 321.949219 149.671875 C 321.949219 148.511719 322.035156 147.3125 322.203125 146.082031 C 324.222656 131.519531 336 127.433594 345.472656 128.359375 C 351.367188 128.933594 356.347656 131.484375 359.5 135.542969 C 360.585938 136.945312 361.425781 138.511719 362.039062 140.207031 C 365.90625 139.292969 369.394531 138.898438 372.089844 138.898438 C 374.863281 138.898438 378.480469 139.324219 382.484375 140.296875 C 383.101562 138.566406 383.953125 136.96875 385.058594 135.542969 C 388.210938 131.484375 393.191406 128.933594 399.085938 128.359375 C 408.5625 127.4375 420.332031 131.519531 422.355469 146.082031 C 422.523438 147.308594 422.609375 148.503906 422.609375 149.664062 C 422.609375 154.460938 421.160156 158.617188 418.332031 161.816406 C 417.484375 162.773438 416.519531 163.632812 415.457031 164.390625 C 431.144531 191.125 447.144531 177.574219 439.78125 151.597656 C 433.921875 130.925781 441.570312 121.277344 452.589844 130.125 C 462.0625 137.726562 465.828125 173.003906 447.796875 185.5625 Z M 447.796875 185.5625 C 431.585938 196.851562 420.679688 187.0625 420.679688 187.0625 C 420.675781 212.703125 402.628906 235.222656 372.089844 235.222656 C 346.988281 235.222656 330.324219 220.011719 325.183594 200.355469 C 319.226562 225.679688 328.3125 261.976562 325.863281 270.039062 C 323 279.457031 302.390625 282.882812 307.257812 227.636719 C 310.308594 193 320.585938 173.28125 327.828125 163.390625 C 327.257812 162.898438 326.71875 162.375 326.226562 161.816406 C 323.402344 158.617188 321.949219 154.46875 321.949219 149.671875 C 321.949219 148.511719 322.035156 147.3125 322.203125 146.082031 C 324.222656 131.519531 336 127.433594 345.472656 128.359375 C 351.367188 128.933594 356.347656 131.484375 359.5 135.542969 C 360.585938 136.945312 361.425781 138.511719 362.039062 140.207031 C 365.90625 139.292969 369.394531 138.898438 372.089844 138.898438 C 374.863281 138.898438 378.480469 139.324219 382.484375 140.296875 C 383.101562 138.566406 383.953125 136.96875 385.058594 135.542969 C 388.210938 131.484375 393.191406 128.933594 399.085938 128.359375 C 408.5625 127.4375 420.332031 131.519531 422.355469 146.082031 C 422.523438 147.308594 422.609375 148.503906 422.609375 149.664062 C 422.609375 154.460938 421.160156 158.617188 418.332031 161.816406 C 417.484375 162.773438 416.519531 163.632812 415.457031 164.390625 C 431.144531 191.125 447.144531 177.574219 439.78125 151.597656 C 433.921875 130.925781 441.570312 121.277344 452.589844 130.125 C 462.0625 137.726562 465.828125 173.003906 447.796875 185.5625 Z M 447.796875 185.5625 " fill-opacity="1" fill-rule="nonzero"/><path fill="#ffffff" d="M 341.171875 165.617188 C 332.660156 165.707031 322.761719 159.941406 324.640625 146.386719 C 326.425781 133.542969 336.703125 129.945312 345.195312 130.773438 C 354.71875 131.703125 362.449219 138.527344 360.460938 151.144531 C 358.628906 162.777344 348.617188 165.539062 341.171875 165.617188 Z M 384.097656 151.144531 C 382.109375 138.527344 389.839844 131.703125 399.363281 130.773438 C 407.855469 129.945312 418.132812 133.542969 419.914062 146.386719 C 421.796875 159.941406 411.898438 165.707031 403.386719 165.617188 C 395.941406 165.539062 385.929688 162.777344 384.097656 151.144531 Z M 384.097656 151.144531 " fill-opacity="1" fill-rule="nonzero"/><path fill="#0e0f1a" d="M 341.503906 160.816406 C 341.089844 160.773438 340.6875 160.71875 340.304688 160.648438 C 335.273438 159.730469 329.578125 156.835938 330.722656 146.980469 C 331.917969 136.703125 338.816406 134.984375 344.425781 135.53125 C 350.710938 136.144531 355.546875 141.855469 354.140625 151.015625 C 352.84375 159.457031 346.390625 161.292969 341.503906 160.816406 Z M 390.417969 151.015625 C 389.011719 141.855469 393.84375 136.144531 400.132812 135.53125 C 405.742188 134.984375 412.640625 136.703125 413.835938 146.980469 C 414.980469 156.835938 409.285156 159.730469 404.253906 160.648438 C 403.867188 160.71875 403.46875 160.773438 403.054688 160.816406 C 398.164062 161.292969 391.714844 159.457031 390.417969 151.015625 Z M 390.417969 151.015625 " fill-opacity="1" fill-rule="nonzero"/><path fill="#ae4425" d="M 377.964844 158.339844 C 376.945312 160.367188 374.859375 161.785156 372.554688 161.796875 C 370.25 161.808594 368.144531 160.425781 367.101562 158.40625 C 366.457031 157.15625 364.5625 158.261719 365.207031 159.511719 C 366.59375 162.195312 369.519531 164 372.554688 163.984375 C 375.585938 163.972656 378.503906 162.140625 379.859375 159.445312 C 380.492188 158.1875 378.597656 157.078125 377.964844 158.339844 Z M 382.679688 320.378906 C 385.160156 320.917969 387.652344 321.417969 390.058594 322.242188 C 392.382812 323.035156 394.996094 324.171875 396.363281 326.316406 C 397.121094 327.5 399.023438 326.40625 398.257812 325.214844 C 396.65625 322.703125 393.875 321.300781 391.152344 320.3125 C 388.589844 319.378906 385.921875 318.84375 383.261719 318.269531 C 381.886719 317.972656 381.296875 320.082031 382.679688 320.378906 Z M 372.089844 235.222656 C 371.449219 235.222656 370.820312 235.207031 370.195312 235.1875 C 370.195312 246.03125 370.195312 256.878906 370.195312 267.722656 C 370.195312 280.882812 370.195312 294.039062 370.195312 307.195312 C 370.195312 313.5625 370.195312 319.933594 370.195312 326.300781 C 370.195312 327.707031 372.386719 327.710938 372.386719 326.300781 C 372.386719 314.210938 372.386719 302.121094 372.386719 290.03125 C 372.386719 277.035156 372.386719 264.042969 372.386719 251.046875 C 372.386719 245.769531 372.386719 240.496094 372.386719 235.21875 C 372.289062 235.21875 372.1875 235.222656 372.089844 235.222656 Z M 372.089844 235.222656 " fill-opacity="1" fill-rule="nonzero"/><g clip-path="url(#5c4cccc083)"><path fill="#cd5f28" d="M 440.554688 123.121094 C 440.398438 122.367188 440.773438 121.675781 441.515625 121.4375 C 442.1875 121.21875 443.054688 121.691406 443.203125 122.394531 C 443.773438 125.105469 444.34375 127.816406 444.917969 130.527344 C 445.074219 131.277344 444.703125 131.96875 443.960938 132.210938 C 443.285156 132.425781 442.421875 131.957031 442.273438 131.253906 C 441.699219 128.542969 441.128906 125.832031 440.554688 123.121094 Z M 449.332031 124.101562 C 449.0625 125.960938 448.789062 127.816406 448.519531 129.675781 C 448.464844 130.054688 448.457031 130.382812 448.65625 130.726562 C 448.824219 131.011719 449.148438 131.28125 449.476562 131.355469 C 450.125 131.503906 451.054688 131.160156 451.164062 130.402344 C 451.433594 128.542969 451.707031 126.6875 451.976562 124.828125 C 452.03125 124.449219 452.042969 124.121094 451.839844 123.777344 C 451.671875 123.492188 451.347656 123.222656 451.019531 123.148438 C 450.371094 123 449.441406 123.34375 449.332031 124.101562 Z M 435.628906 129.851562 C 436.648438 131.382812 437.867188 132.789062 439.277344 133.980469 C 439.558594 134.21875 439.863281 134.378906 440.246094 134.378906 C 440.582031 134.378906 440.984375 134.230469 441.214844 133.980469 C 441.457031 133.71875 441.632812 133.378906 441.617188 133.011719 C 441.601562 132.667969 441.492188 132.277344 441.214844 132.046875 C 440.242188 131.222656 439.359375 130.304688 438.578125 129.300781 C 438.648438 129.390625 438.71875 129.484375 438.792969 129.574219 C 438.511719 129.214844 438.246094 128.847656 437.996094 128.46875 C 437.796875 128.171875 437.527344 127.9375 437.175781 127.839844 C 436.847656 127.75 436.410156 127.792969 436.121094 127.980469 C 435.523438 128.363281 435.203125 129.210938 435.628906 129.851562 Z M 319.519531 271.289062 C 319.800781 273.878906 320.8125 276.25 322.515625 278.234375 C 322.984375 278.777344 323.980469 278.75 324.453125 278.234375 C 324.988281 277.652344 324.953125 276.878906 324.453125 276.296875 C 324.367188 276.195312 324.28125 276.09375 324.199219 275.992188 C 324.105469 275.871094 324.113281 275.886719 324.226562 276.03125 C 324.1875 275.976562 324.148438 275.921875 324.105469 275.867188 C 323.949219 275.652344 323.800781 275.429688 323.660156 275.203125 C 323.382812 274.761719 323.15625 274.300781 322.933594 273.828125 C 322.894531 273.738281 322.90625 273.769531 322.976562 273.925781 C 322.949219 273.863281 322.925781 273.800781 322.902344 273.738281 C 322.851562 273.617188 322.804688 273.492188 322.761719 273.363281 C 322.671875 273.113281 322.59375 272.855469 322.523438 272.597656 C 322.453125 272.339844 322.394531 272.078125 322.34375 271.816406 C 322.320312 271.6875 322.296875 271.554688 322.277344 271.421875 C 322.253906 271.269531 322.257812 271.289062 322.285156 271.488281 C 322.277344 271.421875 322.269531 271.355469 322.261719 271.289062 C 322.21875 270.914062 322.136719 270.597656 321.859375 270.320312 C 321.621094 270.085938 321.230469 269.90625 320.890625 269.921875 C 320.214844 269.953125 319.433594 270.527344 319.519531 271.289062 Z M 323.609375 267.375 C 324.121094 267.621094 324.597656 267.917969 325.046875 268.261719 C 324.953125 268.191406 324.863281 268.121094 324.769531 268.046875 C 325.316406 268.476562 325.808594 268.96875 326.238281 269.515625 C 326.164062 269.421875 326.09375 269.332031 326.023438 269.238281 C 326.445312 269.789062 326.796875 270.386719 327.070312 271.027344 C 327.023438 270.917969 326.976562 270.808594 326.933594 270.699219 C 326.941406 270.71875 326.949219 270.738281 326.957031 270.757812 C 327.101562 271.101562 327.25 271.378906 327.585938 271.578125 C 327.882812 271.75 328.3125 271.820312 328.644531 271.714844 C 328.976562 271.605469 329.296875 271.402344 329.464844 271.085938 C 329.625 270.785156 329.738281 270.363281 329.601562 270.03125 C 329.132812 268.902344 328.511719 267.886719 327.671875 266.988281 C 326.914062 266.183594 325.992188 265.496094 324.996094 265.011719 C 324.660156 264.851562 324.308594 264.773438 323.9375 264.875 C 323.621094 264.964844 323.277344 265.207031 323.121094 265.503906 C 322.792969 266.117188 322.921875 267.042969 323.609375 267.375 Z M 313.28125 269.753906 C 312.21875 271.808594 311.671875 274.113281 311.777344 276.425781 C 311.808594 277.140625 312.382812 277.828125 313.148438 277.792969 C 313.863281 277.761719 314.550781 277.191406 314.519531 276.425781 C 314.496094 275.929688 314.503906 275.429688 314.542969 274.933594 C 314.554688 274.789062 314.570312 274.648438 314.585938 274.507812 C 314.613281 274.210938 314.539062 274.765625 314.59375 274.445312 C 314.636719 274.199219 314.675781 273.957031 314.730469 273.710938 C 314.839844 273.222656 314.976562 272.742188 315.144531 272.273438 C 315.183594 272.171875 315.21875 272.074219 315.257812 271.972656 C 315.285156 271.90625 315.308594 271.839844 315.335938 271.773438 C 315.269531 271.9375 315.265625 271.949219 315.324219 271.808594 C 315.429688 271.582031 315.535156 271.355469 315.652344 271.132812 C 315.980469 270.496094 315.835938 269.617188 315.160156 269.261719 C 314.53125 268.929688 313.632812 269.074219 313.28125 269.753906 Z M 313.28125 269.753906 " fill-opacity="1" fill-rule="nonzero"/></g><path fill="#ae4425" d="M 400.476562 227.019531 C 400.03125 226.15625 399.660156 225.242188 399.34375 224.328125 C 399.191406 223.882812 399.050781 223.414062 398.925781 222.921875 C 397.429688 217.089844 398.125 208.242188 407 202.679688 C 411.746094 199.710938 415.882812 199.011719 419.09375 199.960938 C 416.308594 210.96875 409.921875 220.613281 400.476562 227.019531 Z M 394.09375 211.140625 C 395.164062 206.433594 389.21875 203.222656 387.4375 209.855469 C 385.847656 215.777344 392.589844 217.730469 394.09375 211.140625 Z M 318.84375 190.824219 C 319.230469 190.894531 319.632812 190.949219 320.042969 190.992188 C 324.933594 191.46875 331.382812 189.632812 332.683594 181.191406 C 333.871094 173.453125 330.605469 168.179688 325.773438 166.355469 C 322.226562 171.753906 318.238281 179.320312 314.800781 189.5625 C 316.101562 190.1875 317.496094 190.578125 318.84375 190.824219 Z M 346.234375 173.339844 C 345.222656 169.398438 339.335938 167.972656 338.117188 172.964844 C 336.898438 177.957031 339.054688 180.433594 341.289062 180.804688 C 343.523438 181.171875 347.269531 177.378906 346.234375 173.339844 Z M 337.203125 191.664062 C 335.402344 189.414062 332.589844 192.839844 334.199219 194.980469 C 335.808594 197.121094 338.675781 193.496094 337.203125 191.664062 Z M 460.453125 152.847656 C 460.453125 152.847656 453.128906 151.136719 452.984375 162.835938 C 452.90625 169.25 455.703125 170.671875 458.203125 170.671875 C 460.066406 165.015625 460.714844 158.761719 460.453125 152.847656 Z M 324.09375 240.398438 C 323.558594 234.398438 323.136719 227.992188 323.121094 221.628906 C 323.101562 221.640625 316.167969 225.222656 317.238281 233.480469 C 317.84375 238.136719 321.242188 239.902344 324.09375 240.398438 Z M 324.09375 240.398438 " fill-opacity="0.298" fill-rule="nonzero"/><path fill="#d86876" d="M 234.65625 211.183594 C 234.65625 211.183594 242.195312 204.652344 247.222656 194.351562 C 252.25 184.054688 259.792969 186.316406 258.535156 192.59375 C 263.496094 187.257812 268.023438 189.457031 267.015625 195.734375 C 271.917969 190.710938 275.941406 194.730469 273.554688 199.25 C 277.828125 195.359375 280.910156 201.890625 276.636719 212.4375 C 272.363281 222.988281 254.765625 241.074219 232.894531 242.332031 C 230.632812 219.472656 234.65625 211.183594 234.65625 211.183594 Z M 101.421875 211.183594 C 101.421875 211.183594 93.878906 204.652344 88.851562 194.351562 C 83.824219 184.054688 76.28125 186.316406 77.539062 192.59375 C 74.367188 187.949219 68.960938 189.582031 69.964844 195.859375 C 67.296875 190.335938 60.191406 194.855469 61.703125 199.878906 C 57.425781 196.867188 55.164062 201.890625 59.4375 212.4375 C 63.710938 222.988281 81.308594 241.074219 103.179688 242.332031 C 105.441406 219.472656 101.421875 211.183594 101.421875 211.183594 Z M 101.421875 211.183594 " fill-opacity="1" fill-rule="nonzero"/><g clip-path="url(#3aa6736c6c)"><path fill="#b74750" d="M 143.757812 267.199219 C 121.886719 294.832031 148.03125 312.164062 149.539062 317.4375 C 151.046875 322.710938 127.921875 331 126.410156 327.484375 C 124.902344 323.96875 129.929688 321.707031 136.71875 318.191406 C 108.816406 292.820312 129.679688 265.191406 129.679688 265.191406 C 129.679688 265.191406 138.226562 265.191406 143.757812 267.199219 Z M 193.0625 267.199219 C 214.933594 294.832031 188.789062 312.164062 187.28125 317.4375 C 185.773438 322.710938 208.902344 331 210.410156 327.484375 C 211.917969 323.96875 206.890625 321.707031 200.101562 318.191406 C 228.007812 292.820312 207.140625 265.191406 207.140625 265.191406 C 207.140625 265.191406 198.59375 265.191406 193.0625 267.199219 Z M 188.640625 134.820312 C 186.125 134.820312 182.808594 140.695312 180.3125 146.039062 C 177.671875 139.414062 170.019531 121.425781 164.820312 121.425781 C 158.453125 121.425781 148.359375 148.699219 148.359375 148.699219 C 153.527344 156.75 172.1875 151.484375 178.855469 149.285156 C 177.5625 152.296875 176.714844 154.578125 176.714844 154.578125 C 181.300781 161.71875 200.539062 154.398438 200.539062 154.398438 C 200.539062 154.398438 193.253906 134.820312 188.640625 134.820312 Z M 77.539062 192.59375 C 74.367188 187.949219 68.960938 189.582031 69.964844 195.859375 C 67.296875 190.335938 60.191406 194.855469 61.703125 199.878906 C 58.113281 197.351562 55.945312 200.484375 57.867188 207.792969 L 87.6875 192.265625 C 82.746094 184.421875 76.375 186.785156 77.539062 192.59375 Z M 273.554688 199.25 C 275.941406 194.730469 271.917969 190.710938 267.015625 195.734375 C 268.023438 189.457031 263.496094 187.257812 258.535156 192.59375 C 259.695312 186.800781 253.363281 184.4375 248.429688 192.195312 L 278.128906 207.792969 C 279.914062 200.097656 277.15625 195.96875 273.554688 199.25 Z M 273.554688 199.25 " fill-opacity="1" fill-rule="nonzero"/></g><path fill="#f4959a" d="M 224.816406 271.085938 C 210.410156 277.925781 126.882812 277.925781 112.476562 271.085938 C 98.070312 264.246094 98.21875 164.382812 110.441406 153.894531 C 122.664062 143.410156 213.710938 143.410156 225.933594 153.894531 C 238.15625 164.382812 239.222656 264.246094 224.816406 271.085938 Z M 224.816406 271.085938 C 210.410156 277.925781 126.882812 277.925781 112.476562 271.085938 C 98.070312 264.246094 98.21875 164.382812 110.441406 153.894531 C 122.664062 143.410156 213.710938 143.410156 225.933594 153.894531 C 238.15625 164.382812 239.222656 264.246094 224.816406 271.085938 Z M 224.816406 271.085938 " fill-opacity="1" fill-rule="nonzero"/><path fill="#d86876" d="M 168.914062 164.570312 C 168.9375 163.875 169.484375 163.285156 170.199219 163.285156 C 170.878906 163.285156 171.507812 163.875 171.484375 164.570312 C 171.378906 167.832031 171.273438 171.097656 171.167969 174.363281 C 171.148438 175.058594 170.597656 175.648438 169.882812 175.648438 C 169.207031 175.648438 168.578125 175.058594 168.601562 174.363281 C 168.707031 171.097656 168.808594 167.832031 168.914062 164.570312 Z M 156.136719 169.324219 C 156.8125 171.832031 157.488281 174.34375 158.164062 176.851562 C 158.339844 177.5 159.089844 177.960938 159.746094 177.75 C 160.410156 177.535156 160.832031 176.863281 160.644531 176.167969 C 159.964844 173.660156 159.289062 171.148438 158.613281 168.640625 C 158.4375 167.992188 157.691406 167.53125 157.035156 167.742188 C 156.367188 167.957031 155.949219 168.628906 156.136719 169.324219 Z M 179.996094 168.640625 C 179.550781 171.207031 178.886719 173.730469 178.007812 176.183594 C 177.78125 176.816406 178.261719 177.617188 178.90625 177.761719 C 179.628906 177.925781 180.242188 177.542969 180.484375 176.863281 C 181.363281 174.410156 182.03125 171.890625 182.476562 169.324219 C 182.589844 168.664062 182.300781 167.90625 181.578125 167.742188 C 180.953125 167.601562 180.121094 167.933594 179.996094 168.640625 Z M 173.359375 257.910156 C 174.953125 257.453125 175.628906 259.933594 174.042969 260.386719 C 170.460938 261.410156 166.679688 261.507812 163.042969 260.710938 C 162.359375 260.5625 161.96875 259.777344 162.144531 259.132812 C 162.335938 258.441406 163.046875 258.089844 163.726562 258.238281 C 166.914062 258.933594 170.222656 258.808594 173.359375 257.910156 Z M 173.359375 257.910156 C 174.953125 257.453125 175.628906 259.933594 174.042969 260.386719 C 170.460938 261.410156 166.679688 261.507812 163.042969 260.710938 C 162.359375 260.5625 161.96875 259.777344 162.144531 259.132812 C 162.335938 258.441406 163.046875 258.089844 163.726562 258.238281 C 166.914062 258.933594 170.222656 258.808594 173.359375 257.910156 Z M 173.359375 257.910156 " fill-opacity="1" fill-rule="nonzero"/><path fill="#ffffff" d="M 167.523438 221.609375 C 156.769531 221.730469 144.261719 213.789062 146.636719 195.113281 C 148.890625 177.421875 161.875 172.464844 172.605469 173.605469 C 184.640625 174.886719 194.40625 184.289062 191.894531 201.667969 C 189.582031 217.695312 176.929688 221.5 167.523438 221.609375 Z M 167.523438 221.609375 C 156.769531 221.730469 144.261719 213.789062 146.636719 195.113281 C 148.890625 177.421875 161.875 172.464844 172.605469 173.605469 C 184.640625 174.886719 194.40625 184.289062 191.894531 201.667969 C 189.582031 217.695312 176.929688 221.5 167.523438 221.609375 Z M 167.523438 221.609375 " fill-opacity="1" fill-rule="nonzero"/><path fill="#0e0f1a" d="M 167.941406 214.996094 C 167.421875 214.9375 166.914062 214.859375 166.425781 214.761719 C 160.070312 213.496094 152.871094 209.515625 154.320312 195.933594 C 155.828125 181.773438 164.546875 179.40625 171.632812 180.160156 C 179.578125 181.007812 185.6875 188.875 183.910156 201.492188 C 182.269531 213.125 174.121094 215.652344 167.941406 214.996094 Z M 150.964844 231.800781 C 143.570312 234.898438 145.394531 254.003906 167.949219 254.003906 C 190.503906 254.003906 193.992188 235.25 184.933594 231.800781 C 177.949219 229.144531 172.589844 234.863281 168.320312 234.769531 C 163.871094 234.671875 159.875 228.066406 150.964844 231.800781 Z M 150.964844 231.800781 " fill-opacity="1" fill-rule="nonzero"/><path fill="#ffffff" d="M 155.34375 251.394531 C 155.34375 251.394531 150.78125 249.828125 149.0625 245.625 C 151.5 240.488281 154.546875 237.675781 155.792969 237.933594 C 157.195312 238.226562 157.21875 246.328125 155.34375 251.394531 Z M 180.496094 251.476562 C 180.496094 251.476562 184.898438 249.820312 187.308594 246.003906 C 185.085938 241.722656 181.734375 237.304688 180.042969 237.933594 C 178.355469 238.5625 178.617188 246.410156 180.496094 251.476562 Z M 180.496094 251.476562 " fill-opacity="1" fill-rule="nonzero"/><path fill="#b74750" d="M 234.96875 197.730469 C 234.839844 197.769531 234.710938 197.808594 234.582031 197.847656 C 224.429688 200.667969 213.585938 195.871094 210.210938 180.328125 C 207.101562 165.992188 216.175781 158.660156 223.769531 155.511719 C 224.679688 155.136719 225.636719 154.832031 226.621094 154.601562 C 231.117188 159.875 233.976562 177.613281 234.96875 197.730469 Z M 212.902344 214.746094 C 216.933594 217.976562 222.496094 217.675781 224.519531 214.695312 C 226.324219 212.039062 225.101562 207.007812 220.953125 203.800781 C 216.578125 200.414062 212.441406 200.558594 210.21875 203.980469 C 208.691406 206.328125 209.1875 211.769531 212.902344 214.746094 Z M 113.394531 242.683594 C 111.582031 235.367188 106.988281 232.324219 102.183594 232.464844 C 102.851562 241.957031 103.984375 250.660156 105.597656 257.425781 C 105.722656 257.378906 105.847656 257.332031 105.96875 257.277344 C 110.304688 255.320312 115.429688 250.914062 113.394531 242.683594 Z M 116.765625 225.207031 C 114.808594 223.070312 111.71875 222.742188 110.363281 224.207031 C 109.152344 225.507812 109.417969 228.390625 111.441406 230.523438 C 113.574219 232.777344 115.867188 233.066406 117.371094 231.378906 C 118.402344 230.21875 118.570312 227.175781 116.765625 225.207031 Z M 129.105469 256.675781 C 131.917969 253.644531 131.40625 251.039062 129.703125 249.105469 C 128.179688 247.378906 125.71875 246.542969 122.933594 249.109375 C 119.996094 251.820312 120.152344 254.597656 122.125 256.746094 C 123.480469 258.222656 126.757812 259.207031 129.105469 256.675781 Z M 195.484375 165.722656 C 196.890625 168.566406 198.804688 168.8125 200.550781 168 C 202.105469 167.277344 203.273438 165.632812 202.179688 162.921875 C 201.027344 160.0625 199.078125 159.507812 197.125 160.46875 C 195.78125 161.128906 194.3125 163.351562 195.484375 165.722656 Z M 195.484375 165.722656 " fill-opacity="0.4" fill-rule="nonzero"/><path fill="#ffffff" d="M 642.636719 171.28125 C 642.636719 193.304688 654.011719 198.515625 664.945312 199.460938 C 675.734375 200.394531 691.285156 195.726562 692.011719 175.199219 C 692.746094 154.667969 681.039062 143.101562 667.503906 143.101562 C 655.4375 143.09375 642.636719 148.324219 642.636719 171.28125 Z M 579.035156 151.605469 C 579.035156 173.628906 590.9375 178.839844 602.375 179.785156 C 613.664062 180.71875 629.921875 176.050781 630.6875 155.523438 C 631.449219 134.992188 619.207031 123.425781 605.054688 123.425781 C 592.429688 123.425781 579.035156 128.648438 579.035156 151.605469 Z M 515.882812 170.421875 C 515.882812 192.445312 527.785156 197.65625 539.222656 198.605469 C 550.507812 199.535156 566.769531 194.867188 567.535156 174.339844 C 568.296875 153.808594 556.054688 142.242188 541.902344 142.242188 C 529.269531 142.242188 515.882812 147.46875 515.882812 170.421875 Z M 515.882812 170.421875 " fill-opacity="1" fill-rule="nonzero"/><g clip-path="url(#8f03c0514b)"><path fill="#5db046" d="M 478.351562 331.09375 C 491.035156 331.09375 594.875 331.09375 636.890625 331.09375 C 678.902344 331.09375 713.160156 328.332031 696.34375 268.117188 C 688.773438 240.992188 672.261719 220.53125 653.636719 207.324219 C 654.957031 205.003906 656.199219 202.625 657.359375 200.203125 C 659.601562 200.855469 662.046875 201.304688 664.726562 201.523438 C 665.667969 201.605469 666.628906 201.640625 667.578125 201.640625 C 674.398438 201.640625 680.773438 199.667969 685.527344 196.078125 C 689.828125 192.828125 695.058594 186.53125 695.484375 175.015625 C 695.984375 161.578125 691.042969 153.519531 686.8125 149.125 C 681.757812 143.886719 674.921875 141 667.546875 141 C 649.304688 141 639.257812 151.753906 639.257812 171.265625 C 639.257812 181.644531 642.003906 189.511719 647.410156 194.640625 C 648.539062 195.710938 649.773438 196.644531 651.117188 197.464844 C 650.117188 199.519531 649.054688 201.546875 647.929688 203.527344 C 634.894531 195.46875 621.183594 190.855469 609.007812 189.886719 C 609.007812 187.191406 609.007812 184.5 609.007812 181.8125 C 614.59375 181.292969 619.734375 179.421875 623.730469 176.402344 C 628.035156 173.152344 633.265625 166.855469 633.691406 155.339844 C 634.191406 141.902344 629.246094 133.847656 625.015625 129.449219 C 619.949219 124.230469 613.113281 121.347656 605.738281 121.347656 C 597.820312 121.347656 591.003906 123.425781 586.027344 127.359375 C 579.410156 132.582031 576.046875 140.765625 576.046875 151.664062 C 576.046875 162.054688 579.070312 169.953125 585.042969 175.140625 C 589.308594 178.855469 595.074219 181.070312 602.152344 181.777344 C 602.152344 184.433594 602.152344 187.089844 602.152344 189.746094 C 587.554688 190.128906 574.339844 194.296875 562.671875 200.855469 C 561.914062 199.191406 561.152344 197.523438 560.378906 195.859375 C 566.578125 190.800781 569.855469 182.523438 569.855469 171.390625 C 569.855469 161.015625 567.109375 153.148438 561.703125 148.015625 C 557.464844 144.003906 551.800781 141.75 544.382812 141.140625 C 543.445312 141.058594 542.480469 141.023438 541.535156 141.023438 C 534.710938 141.023438 528.335938 142.996094 523.585938 146.585938 C 519.28125 149.835938 514.054688 156.132812 513.625 167.648438 C 513.128906 181.085938 518.070312 189.144531 522.300781 193.539062 C 527.351562 198.78125 534.191406 201.664062 541.5625 201.664062 C 546.484375 201.664062 550.804688 200.878906 554.496094 199.351562 C 555.285156 201.046875 556.054688 202.734375 556.816406 204.429688 C 519.238281 229.15625 499.429688 278.222656 502.925781 297.445312 C 470.816406 303.375 465.667969 331.09375 478.351562 331.09375 Z M 541.5625 197.097656 C 528.644531 197.097656 517.484375 186.539062 518.179688 167.808594 C 518.828125 150.535156 531.488281 145.574219 541.535156 145.574219 C 542.378906 145.574219 543.210938 145.609375 544.011719 145.675781 C 554.445312 146.542969 565.300781 151.296875 565.300781 171.390625 C 565.300781 192.328125 553.078125 197.097656 541.5625 197.097656 Z M 657.925781 195.625 C 656.257812 194.984375 655.445312 194.582031 653.753906 193.769531 C 648.035156 190.390625 643.804688 183.824219 643.804688 171.28125 C 643.804688 150.335938 656.015625 145.566406 667.539062 145.566406 C 680.457031 145.566406 691.621094 156.125 690.921875 174.855469 C 690.277344 192.132812 677.617188 197.09375 667.570312 197.09375 C 666.722656 197.09375 665.894531 197.054688 665.09375 196.988281 C 662.675781 196.796875 660.246094 196.386719 657.925781 195.625 Z M 605.765625 177.429688 C 604.921875 177.429688 604.09375 177.394531 603.292969 177.328125 C 592.855469 176.460938 580.605469 171.757812 580.605469 151.664062 C 580.605469 130.71875 594.214844 125.90625 605.738281 125.90625 C 618.65625 125.90625 629.820312 136.464844 629.121094 155.195312 C 628.476562 172.464844 615.8125 177.429688 605.765625 177.429688 Z M 605.765625 177.429688 " fill-opacity="1" fill-rule="nonzero"/></g><path fill="#0e0f1a" d="M 663.699219 152.722656 C 671.804688 152.722656 678.820312 160.347656 678.386719 173.878906 C 677.953125 187.414062 668.632812 190.488281 662.164062 189.878906 C 655.613281 189.253906 648.789062 185.820312 648.789062 171.304688 C 648.796875 156.164062 656.464844 152.722656 663.699219 152.722656 Z M 544.992188 189.953125 C 536.886719 189.953125 529.871094 182.328125 530.304688 168.792969 C 530.746094 155.261719 540.058594 152.1875 546.527344 152.800781 C 553.078125 153.425781 559.902344 156.859375 559.902344 171.375 C 559.902344 186.503906 552.226562 189.953125 544.992188 189.953125 Z M 605.464844 170.355469 C 604.90625 170.355469 604.355469 170.335938 603.828125 170.285156 C 596.941406 169.660156 588.847656 166.238281 588.847656 151.664062 C 588.847656 136.464844 597.835938 132.972656 605.4375 132.972656 C 613.964844 132.972656 621.335938 140.632812 620.882812 154.226562 C 620.464844 166.753906 612.097656 170.355469 605.464844 170.355469 Z M 605.464844 170.355469 " fill-opacity="1" fill-rule="nonzero"/><path fill="#1f7847" d="M 616.238281 199.960938 C 616.746094 199.34375 617.796875 199.449219 618.320312 199.960938 C 618.921875 200.5625 618.816406 201.421875 618.320312 202.039062 C 615.21875 205.832031 610.238281 208.078125 605.339844 207.792969 C 600.421875 207.507812 595.925781 204.886719 593.128906 200.863281 C 592.046875 199.308594 594.589844 197.839844 595.660156 199.382812 C 597.894531 202.589844 601.699219 204.722656 605.613281 204.863281 C 609.734375 205.023438 613.648438 203.140625 616.238281 199.960938 Z M 634.785156 267.742188 C 634.375 272.960938 634.242188 278.214844 634.628906 283.433594 C 634.976562 288.09375 635.527344 293.371094 637.925781 297.488281 C 639.191406 299.644531 641.109375 301.515625 643.566406 302.207031 C 645.925781 302.867188 648.289062 302.191406 650.082031 300.570312 C 652.84375 298.074219 653.636719 293.972656 654.328125 290.492188 C 655.246094 285.890625 655.882812 281.136719 655.855469 276.441406 C 655.839844 274.554688 652.902344 274.546875 652.917969 276.441406 C 652.9375 280.117188 652.519531 283.808594 651.910156 287.433594 C 651.601562 289.289062 651.226562 291.148438 650.75 292.964844 C 650.421875 294.230469 650.054688 295.511719 649.507812 296.535156 C 648.628906 298.183594 647.078125 299.734375 645.058594 299.519531 C 643.003906 299.308594 641.445312 297.699219 640.453125 296.003906 C 639.390625 294.191406 638.859375 292.09375 638.441406 290.054688 C 638.007812 287.96875 637.742188 285.863281 637.582031 283.742188 C 637.164062 278.421875 637.296875 273.054688 637.714844 267.742188 C 637.875 265.855469 634.929688 265.863281 634.785156 267.742188 Z M 567.3125 267.742188 C 567.679688 272.449219 567.820312 277.171875 567.570312 281.886719 C 567.34375 286.074219 566.925781 290.542969 565.335938 294.472656 C 564.558594 296.402344 563.214844 298.382812 561.226562 299.199219 C 559.324219 299.976562 557.515625 299.261719 556.273438 297.707031 C 555.335938 296.535156 554.988281 295.410156 554.5625 293.996094 C 554.070312 292.34375 553.703125 290.664062 553.386719 288.96875 C 552.609375 284.855469 552.089844 280.628906 552.109375 276.441406 C 552.125 274.554688 549.1875 274.546875 549.171875 276.441406 C 549.152344 280.636719 549.679688 284.855469 550.414062 288.980469 C 551.023438 292.402344 551.648438 296.421875 553.792969 299.261719 C 555.261719 301.207031 557.441406 302.617188 559.96875 302.449219 C 562.40625 302.28125 564.558594 300.898438 566.050781 299.015625 C 569.054688 295.21875 569.773438 289.929688 570.25 285.261719 C 570.84375 279.449219 570.714844 273.554688 570.257812 267.734375 C 570.105469 265.871094 567.167969 265.855469 567.3125 267.742188 Z M 567.3125 267.742188 " fill-opacity="1" fill-rule="nonzero"/><path fill="#1f7847" d="M 517.144531 248.058594 C 524.246094 235.585938 533.839844 223.085938 545.667969 212.863281 C 550.621094 220.078125 552.074219 231.378906 544.296875 241.992188 C 536.410156 252.765625 524.789062 251.582031 517.144531 248.058594 Z M 537.820312 265.253906 C 537.820312 258.832031 533.425781 255.789062 529.203125 255.457031 C 525.039062 255.136719 518.648438 258.101562 518.363281 265.234375 C 518.085938 272.367188 522.992188 275.046875 528.210938 275.046875 C 532.875 275.050781 537.820312 272.449219 537.820312 265.253906 Z M 582.148438 229.816406 C 582.148438 226.535156 579.902344 224.980469 577.75 224.8125 C 575.621094 224.640625 572.359375 226.160156 572.210938 229.808594 C 572.066406 233.457031 574.578125 234.820312 577.242188 234.820312 C 579.621094 234.820312 582.148438 233.492188 582.148438 229.816406 Z M 692.511719 298.742188 C 695.535156 299.085938 698.230469 298.933594 700.609375 298.375 C 701.082031 290.390625 699.78125 280.46875 696.335938 268.125 C 694.699219 262.269531 692.640625 256.71875 690.242188 251.488281 C 679.746094 253.199219 674.082031 261.976562 672.835938 270.757812 C 671.402344 280.878906 676.835938 296.945312 692.511719 298.742188 Z M 666.003906 251.386719 C 664.699219 249.117188 662.53125 248.925781 660.964844 249.667969 C 659.425781 250.402344 657.773438 252.742188 659.125 255.324219 C 660.472656 257.910156 662.75 257.859375 664.601562 256.792969 C 666.253906 255.847656 667.464844 253.925781 666.003906 251.386719 Z M 666.003906 251.386719 " fill-opacity="0.4" fill-rule="nonzero"/><g fill="#100f0d" fill-opacity="1"><g transform="translate(13.979688, 433.836038)"><g><path d="M 19.238281 -44.515625 L 19.238281 -36.148438 L 27.125 -36.148438 L 27.125 -19.898438 C 27.125 -13.980469 23.78125 -8.125 17.027344 -8.125 C 14.101562 -8.125 8.84375 -8.960938 7.050781 -16.132812 L -1.433594 -13.5625 C 0.835938 -3.703125 7.945312 0.777344 16.96875 0.777344 C 29.753906 0.777344 36.328125 -8.722656 36.328125 -19.898438 L 36.328125 -44.515625 Z M 19.238281 -44.515625 "/></g></g></g><g fill="#100f0d" fill-opacity="1"><g transform="translate(54.12654, 433.836038)"><g><path d="M 17.386719 -30.832031 C 8.722656 -30.832031 1.734375 -23.78125 1.734375 -15.058594 C 1.734375 -6.453125 8.722656 0.65625 17.386719 0.65625 C 26.050781 0.65625 33.28125 -6.453125 33.28125 -15.058594 C 33.28125 -23.78125 26.050781 -30.832031 17.386719 -30.832031 Z M 17.386719 -7.765625 C 13.503906 -7.765625 10.335938 -10.753906 10.335938 -15.058594 C 10.335938 -19.300781 13.503906 -22.347656 17.386719 -22.347656 C 21.511719 -22.347656 24.617188 -19.300781 24.617188 -15.058594 C 24.617188 -10.753906 21.511719 -7.765625 17.386719 -7.765625 Z M 17.386719 -7.765625 "/></g></g></g><g fill="#100f0d" fill-opacity="1"><g transform="translate(89.135537, 433.836038)"><g><path d="M 7.171875 -35.492188 C 10.039062 -35.492188 12.25 -37.703125 12.25 -40.332031 C 12.25 -42.78125 10.039062 -44.992188 7.171875 -44.992188 C 4.542969 -44.992188 2.269531 -42.722656 2.269531 -40.332031 C 2.269531 -37.703125 4.542969 -35.492188 7.171875 -35.492188 Z M 11.472656 -30.175781 L 2.988281 -30.175781 L 2.988281 0 L 11.472656 0 Z M 11.472656 -30.175781 "/></g></g></g><g fill="#100f0d" fill-opacity="1"><g transform="translate(103.593175, 433.836038)"><g><path d="M 33.402344 -15.058594 C 33.402344 -23.78125 27.664062 -30.832031 19.417969 -30.832031 C 16.671875 -30.832031 13.144531 -29.996094 11.472656 -28.082031 L 11.472656 -30.175781 L 2.988281 -30.175781 L 2.988281 0 L 11.472656 0 L 11.472656 -15.058594 C 11.472656 -19.898438 14.9375 -22.347656 18.703125 -22.347656 C 22.167969 -22.347656 24.976562 -19.898438 24.976562 -15.058594 L 24.976562 0 L 33.402344 0 Z M 33.402344 -15.058594 "/></g></g></g><g fill="#100f0d" fill-opacity="1"><g transform="translate(139.558054, 433.836038)"><g/></g></g><g fill="#100f0d" fill-opacity="1"><g transform="translate(164.709579, 433.836038)"><g><path d="M 20.671875 -22.347656 L 20.671875 -30.175781 L 13.503906 -30.175781 L 13.503906 -40.273438 L 5.019531 -34.117188 L 5.019531 -30.175781 L 0.476562 -30.175781 L 0.476562 -22.347656 L 5.019531 -22.347656 L 5.019531 -12.488281 C 5.019531 -4.660156 11.472656 0.65625 20.496094 0.65625 L 20.496094 -7.765625 C 16.609375 -7.765625 13.503906 -9.320312 13.503906 -12.726562 L 13.503906 -22.347656 Z M 20.671875 -22.347656 "/></g></g></g><g fill="#100f0d" fill-opacity="1"><g transform="translate(186.276561, 433.836038)"><g><path d="M 33.402344 -15.058594 C 33.402344 -23.78125 27.664062 -30.832031 19.417969 -30.832031 C 16.671875 -30.832031 13.085938 -29.996094 11.472656 -28.023438 L 11.472656 -44.515625 L 2.988281 -44.515625 L 2.988281 0 L 11.472656 0 L 11.472656 -15.058594 C 11.472656 -19.300781 14.9375 -22.347656 18.703125 -22.347656 C 22.167969 -22.347656 24.976562 -19.898438 24.976562 -15.058594 L 24.976562 0 L 33.402344 0 Z M 33.402344 -15.058594 "/></g></g></g><g fill="#100f0d" fill-opacity="1"><g transform="translate(222.24144, 433.836038)"><g><path d="M 24.617188 -10.816406 C 23.242188 -8.664062 20.671875 -7.765625 18.105469 -7.765625 C 17.207031 -7.765625 16.371094 -7.828125 15.59375 -8.125 L 32.445312 -20.195312 C 30.59375 -25.8125 24.855469 -30.832031 17.386719 -30.832031 C 8.722656 -30.832031 1.734375 -23.78125 1.734375 -15.058594 C 1.734375 -6.453125 9.023438 0.65625 18.105469 0.65625 C 23.480469 0.65625 28.800781 -1.792969 31.367188 -5.617188 Z M 10.335938 -15.058594 C 10.335938 -19.300781 13.503906 -22.347656 17.386719 -22.347656 C 19 -22.347656 20.375 -21.808594 21.570312 -20.914062 L 10.574219 -13.085938 C 10.398438 -13.683594 10.335938 -14.339844 10.335938 -15.058594 Z M 10.335938 -15.058594 "/></g></g></g><g fill="#100f0d" fill-opacity="1"><g transform="translate(256.414054, 433.836038)"><g/></g></g><g fill="#100f0d" fill-opacity="1"><g transform="translate(281.565594, 433.836038)"><g><path d="M 27.964844 -27.304688 L 4.242188 -45.289062 L 4.242188 0 L 13.503906 0 L 13.503906 -26.828125 L 27.964844 -16.371094 L 42.421875 -26.828125 L 42.421875 0 L 51.625 0 L 51.625 -45.289062 Z M 27.964844 -27.304688 "/></g></g></g><g fill="#100f0d" fill-opacity="1"><g transform="translate(337.484415, 433.836038)"><g><path d="M 17.386719 -30.832031 C 8.722656 -30.832031 1.734375 -23.78125 1.734375 -15.058594 C 1.734375 -6.453125 8.722656 0.65625 17.386719 0.65625 C 26.050781 0.65625 33.28125 -6.453125 33.28125 -15.058594 C 33.28125 -23.78125 26.050781 -30.832031 17.386719 -30.832031 Z M 17.386719 -7.765625 C 13.503906 -7.765625 10.335938 -10.753906 10.335938 -15.058594 C 10.335938 -19.300781 13.503906 -22.347656 17.386719 -22.347656 C 21.511719 -22.347656 24.617188 -19.300781 24.617188 -15.058594 C 24.617188 -10.753906 21.511719 -7.765625 17.386719 -7.765625 Z M 17.386719 -7.765625 "/></g></g></g><g fill="#100f0d" fill-opacity="1"><g transform="translate(372.493397, 433.836038)"><g><path d="M 17.386719 -30.832031 C 8.722656 -30.832031 1.734375 -23.78125 1.734375 -15.058594 C 1.734375 -6.453125 8.722656 0.65625 17.386719 0.65625 C 26.050781 0.65625 33.28125 -6.453125 33.28125 -15.058594 C 33.28125 -23.78125 26.050781 -30.832031 17.386719 -30.832031 Z M 17.386719 -7.765625 C 13.503906 -7.765625 10.335938 -10.753906 10.335938 -15.058594 C 10.335938 -19.300781 13.503906 -22.347656 17.386719 -22.347656 C 21.511719 -22.347656 24.617188 -19.300781 24.617188 -15.058594 C 24.617188 -10.753906 21.511719 -7.765625 17.386719 -7.765625 Z M 17.386719 -7.765625 "/></g></g></g><g fill="#100f0d" fill-opacity="1"><g transform="translate(407.50238, 433.836038)"><g><path d="M 23.898438 -44.515625 L 23.898438 -28.082031 C 22.585938 -29.515625 19.238281 -30.832031 16.550781 -30.832031 C 8.484375 -30.832031 1.734375 -23.78125 1.734375 -15.058594 C 1.734375 -6.453125 8.304688 0.65625 16.550781 0.65625 C 19.300781 0.65625 22.585938 -0.417969 23.898438 -2.152344 L 23.898438 0 L 32.382812 0 L 32.382812 -44.515625 Z M 17.386719 -7.765625 C 13.503906 -7.765625 10.335938 -10.753906 10.335938 -15.058594 C 10.335938 -19.300781 13.503906 -22.347656 17.386719 -22.347656 C 21.332031 -22.347656 24.257812 -19.300781 24.257812 -15.058594 C 24.257812 -10.753906 21.332031 -7.765625 17.386719 -7.765625 Z M 17.386719 -7.765625 "/></g></g></g><g fill="#100f0d" fill-opacity="1"><g transform="translate(442.869842, 433.836038)"><g><path d="M 13.203125 -2.867188 L 5.136719 14.398438 L 13.921875 14.398438 L 34.65625 -30.175781 L 26.230469 -30.175781 L 17.6875 -11.472656 L 8.960938 -30.175781 L -0.359375 -30.175781 Z M 13.203125 -2.867188 "/></g></g></g><g fill="#100f0d" fill-opacity="1"><g transform="translate(477.161925, 433.836038)"><g/></g></g><g fill="#100f0d" fill-opacity="1"><g transform="translate(502.313465, 433.836038)"><g><path d="M 27.964844 -27.304688 L 4.242188 -45.289062 L 4.242188 0 L 13.503906 0 L 13.503906 -26.828125 L 27.964844 -16.371094 L 42.421875 -26.828125 L 42.421875 0 L 51.625 0 L 51.625 -45.289062 Z M 27.964844 -27.304688 "/></g></g></g><g fill="#100f0d" fill-opacity="1"><g transform="translate(558.232286, 433.836038)"><g><path d="M 17.386719 -30.832031 C 8.722656 -30.832031 1.734375 -23.78125 1.734375 -15.058594 C 1.734375 -6.453125 8.722656 0.65625 17.386719 0.65625 C 26.050781 0.65625 33.28125 -6.453125 33.28125 -15.058594 C 33.28125 -23.78125 26.050781 -30.832031 17.386719 -30.832031 Z M 17.386719 -7.765625 C 13.503906 -7.765625 10.335938 -10.753906 10.335938 -15.058594 C 10.335938 -19.300781 13.503906 -22.347656 17.386719 -22.347656 C 21.511719 -22.347656 24.617188 -19.300781 24.617188 -15.058594 C 24.617188 -10.753906 21.511719 -7.765625 17.386719 -7.765625 Z M 17.386719 -7.765625 "/></g></g></g><g fill="#100f0d" fill-opacity="1"><g transform="translate(593.241268, 433.836038)"><g><path d="M 33.402344 -15.058594 C 33.402344 -23.78125 27.664062 -30.832031 19.417969 -30.832031 C 16.671875 -30.832031 13.144531 -29.996094 11.472656 -28.082031 L 11.472656 -30.175781 L 2.988281 -30.175781 L 2.988281 0 L 11.472656 0 L 11.472656 -15.058594 C 11.472656 -19.898438 14.9375 -22.347656 18.703125 -22.347656 C 22.167969 -22.347656 24.976562 -19.898438 24.976562 -15.058594 L 24.976562 0 L 33.402344 0 Z M 33.402344 -15.058594 "/></g></g></g><g fill="#100f0d" fill-opacity="1"><g transform="translate(629.206177, 433.836038)"><g><path d="M 10.753906 -12.128906 C 12.667969 -11.832031 13.445312 -10.992188 13.445312 -9.800781 C 13.445312 -8.664062 12.726562 -7.765625 11.171875 -7.765625 C 9.859375 -7.765625 8.785156 -8.125 7.886719 -9.082031 L 0.71875 -3.882812 C 3.347656 -0.894531 6.632812 0.65625 11.113281 0.65625 C 17.625 0.65625 22.707031 -3.523438 22.707031 -9.679688 C 22.707031 -15.894531 18.460938 -18.761719 12.90625 -19.480469 C 10.398438 -19.777344 9.679688 -20.375 9.679688 -21.390625 C 9.679688 -22.285156 10.335938 -22.945312 11.472656 -22.945312 C 12.605469 -22.945312 13.445312 -22.40625 14.21875 -21.6875 L 20.316406 -26.109375 C 18.164062 -29.21875 15.175781 -30.832031 11.292969 -30.832031 C 6.8125 -30.832031 1.375 -26.949219 1.375 -21.6875 C 1.375 -16.550781 5.257812 -12.90625 10.753906 -12.128906 Z M 10.753906 -12.128906 "/></g></g></g><g fill="#100f0d" fill-opacity="1"><g transform="translate(653.22258, 433.836038)"><g><path d="M 20.671875 -22.347656 L 20.671875 -30.175781 L 13.503906 -30.175781 L 13.503906 -40.273438 L 5.019531 -34.117188 L 5.019531 -30.175781 L 0.476562 -30.175781 L 0.476562 -22.347656 L 5.019531 -22.347656 L 5.019531 -12.488281 C 5.019531 -4.660156 11.472656 0.65625 20.496094 0.65625 L 20.496094 -7.765625 C 16.609375 -7.765625 13.503906 -9.320312 13.503906 -12.726562 L 13.503906 -22.347656 Z M 20.671875 -22.347656 "/></g></g></g><g fill="#100f0d" fill-opacity="1"><g transform="translate(674.789562, 433.836038)"><g><path d="M 24.617188 -10.816406 C 23.242188 -8.664062 20.671875 -7.765625 18.105469 -7.765625 C 17.207031 -7.765625 16.371094 -7.828125 15.59375 -8.125 L 32.445312 -20.195312 C 30.59375 -25.8125 24.855469 -30.832031 17.386719 -30.832031 C 8.722656 -30.832031 1.734375 -23.78125 1.734375 -15.058594 C 1.734375 -6.453125 9.023438 0.65625 18.105469 0.65625 C 23.480469 0.65625 28.800781 -1.792969 31.367188 -5.617188 Z M 10.335938 -15.058594 C 10.335938 -19.300781 13.503906 -22.347656 17.386719 -22.347656 C 19 -22.347656 20.375 -21.808594 21.570312 -20.914062 L 10.574219 -13.085938 C 10.398438 -13.683594 10.335938 -14.339844 10.335938 -15.058594 Z M 10.335938 -15.058594 "/></g></g></g><g fill="#100f0d" fill-opacity="1"><g transform="translate(708.962192, 433.836038)"><g><path d="M 20.253906 -30.710938 C 19.480469 -30.832031 18.882812 -30.832031 18.164062 -30.832031 C 15.832031 -30.832031 13.324219 -30.054688 11.472656 -28.082031 L 11.472656 -30.175781 L 2.988281 -30.175781 L 2.988281 0 L 11.472656 0 L 11.472656 -15.058594 C 11.472656 -19.898438 14.28125 -22.347656 17.566406 -22.347656 C 18.523438 -22.347656 19.417969 -22.226562 20.253906 -21.929688 Z M 20.253906 -30.710938 "/></g></g></g><g fill="#100f0d" fill-opacity="1"><g transform="translate(729.991484, 433.836038)"><g><path d="M 10.753906 -12.128906 C 12.667969 -11.832031 13.445312 -10.992188 13.445312 -9.800781 C 13.445312 -8.664062 12.726562 -7.765625 11.171875 -7.765625 C 9.859375 -7.765625 8.785156 -8.125 7.886719 -9.082031 L 0.71875 -3.882812 C 3.347656 -0.894531 6.632812 0.65625 11.113281 0.65625 C 17.625 0.65625 22.707031 -3.523438 22.707031 -9.679688 C 22.707031 -15.894531 18.460938 -18.761719 12.90625 -19.480469 C 10.398438 -19.777344 9.679688 -20.375 9.679688 -21.390625 C 9.679688 -22.285156 10.335938 -22.945312 11.472656 -22.945312 C 12.605469 -22.945312 13.445312 -22.40625 14.21875 -21.6875 L 20.316406 -26.109375 C 18.164062 -29.21875 15.175781 -30.832031 11.292969 -30.832031 C 6.8125 -30.832031 1.375 -26.949219 1.375 -21.6875 C 1.375 -16.550781 5.257812 -12.90625 10.753906 -12.128906 Z M 10.753906 -12.128906 "/></g></g></g></svg>